<?xml version="1.0" standalone="no"?>
<!DOCTYPE svg PUBLIC "-//W3C//DTD SVG 20010904//EN"
 "http://www.w3.org/TR/2001/REC-SVG-20010904/DTD/svg10.dtd">
<svg version="1.0" xmlns="http://www.w3.org/2000/svg"
 width="900.000000pt" height="831.000000pt" viewBox="0 0 900.000000 831.000000"
 preserveAspectRatio="xMidYMid meet">
<metadata>
Created by potrace 1.10, written by Peter Selinger 2001-2011
</metadata>
<g transform="translate(0.000000,831.000000) scale(0.100000,-0.100000)"
fill="#ffffff" stroke="none">
<path d="M215 8301 c7 -12 -26 -31 -54 -31 -27 0 -126 -98 -145 -145 -21 -50
-23 -380 -2 -438 15 -43 102 -137 127 -137 9 0 22 -7 29 -15 11 -13 75 -15
467 -15 354 0 454 -3 457 -12 2 -7 9 -29 16 -48 6 -19 15 -53 19 -75 4 -23 11
-47 16 -55 5 -8 12 -32 16 -55 10 -50 27 -121 41 -160 6 -16 13 -48 17 -70 4
-22 13 -50 19 -62 7 -12 12 -34 12 -50 1 -15 7 -39 15 -53 8 -14 15 -38 15
-55 0 -16 7 -41 15 -55 8 -14 15 -38 15 -55 0 -16 7 -41 15 -55 8 -14 15 -41
15 -60 0 -19 7 -44 15 -54 8 -11 15 -31 15 -44 0 -13 7 -47 16 -76 9 -28 22
-71 30 -96 8 -25 14 -56 14 -70 1 -14 7 -36 15 -50 8 -14 15 -38 15 -55 0 -16
7 -41 15 -55 8 -14 15 -38 15 -55 0 -16 7 -41 15 -55 8 -14 15 -38 15 -55 0
-16 7 -41 15 -55 8 -14 15 -38 15 -55 0 -16 7 -41 15 -55 8 -14 15 -38 15 -55
0 -16 7 -41 15 -55 8 -14 15 -38 15 -55 0 -16 7 -41 15 -55 8 -14 14 -39 15
-56 0 -18 7 -45 15 -60 8 -16 15 -42 15 -59 1 -16 7 -41 15 -55 8 -14 15 -38
15 -55 0 -16 7 -41 15 -55 8 -14 15 -38 15 -55 0 -16 7 -41 15 -55 8 -14 15
-38 15 -55 0 -16 7 -41 15 -55 8 -14 14 -41 15 -60 0 -20 5 -41 12 -48 6 -6
15 -30 19 -54 9 -53 27 -123 41 -163 6 -16 13 -48 17 -70 4 -22 13 -50 19 -62
7 -12 12 -34 12 -50 1 -15 7 -39 15 -53 8 -14 15 -38 15 -55 0 -16 7 -41 15
-55 8 -14 15 -38 15 -55 0 -16 7 -41 15 -55 8 -14 15 -41 15 -60 0 -19 7 -44
15 -54 8 -11 15 -31 15 -44 0 -13 6 -45 14 -71 8 -25 22 -73 31 -106 9 -33 23
-81 31 -106 7 -26 14 -57 14 -70 1 -13 7 -35 15 -49 8 -14 15 -38 15 -55 0
-16 7 -41 15 -55 8 -14 15 -38 15 -55 0 -16 7 -41 15 -55 8 -14 15 -38 15 -55
0 -16 7 -41 15 -55 8 -14 15 -38 15 -55 0 -16 7 -41 15 -55 8 -14 14 -39 15
-56 0 -18 7 -45 15 -60 8 -16 15 -41 15 -55 0 -15 7 -40 15 -55 8 -16 15 -42
15 -59 1 -16 7 -41 15 -55 8 -14 15 -38 15 -55 0 -16 7 -41 15 -55 8 -14 15
-38 15 -55 0 -16 7 -41 15 -55 8 -14 15 -38 15 -55 0 -16 7 -41 15 -55 8 -14
15 -38 15 -55 0 -16 7 -41 15 -55 8 -14 14 -39 15 -56 0 -18 7 -45 15 -60 8
-16 15 -39 15 -52 0 -12 7 -39 15 -59 8 -19 15 -47 15 -62 1 -14 7 -37 15 -51
8 -14 15 -38 15 -55 0 -16 7 -41 15 -55 8 -14 15 -38 15 -55 0 -16 7 -41 15
-55 8 -14 15 -36 15 -50 0 -14 7 -43 15 -65 8 -22 14 -56 15 -76 0 -26 8 -43
33 -66 32 -30 102 -63 135 -63 10 0 31 -12 48 -27 16 -16 48 -43 71 -60 l41
-33 2381 0 c2175 0 2385 1 2414 16 55 28 94 62 129 111 l33 48 0 205 0 205
-27 42 c-39 59 -110 115 -165 130 -38 9 -521 12 -2281 13 l-2232 0 -20 33
c-11 17 -20 48 -20 67 -1 19 -7 46 -15 60 -8 14 -15 41 -15 60 0 19 -7 46 -15
60 -8 14 -15 41 -15 60 0 19 -7 46 -15 60 -8 14 -15 41 -15 60 0 19 -7 46 -15
60 -8 14 -14 40 -15 58 0 18 -6 45 -14 60 -8 15 -15 54 -17 87 l-4 60 2366 3
c2088 2 2368 4 2379 17 7 8 18 15 24 15 18 0 71 52 102 101 27 43 28 48 31
204 4 157 11 206 39 273 8 18 14 43 14 55 0 13 7 32 15 43 8 10 15 31 15 45 0
14 7 34 15 45 8 10 15 31 15 45 0 14 7 34 15 45 8 10 15 30 15 44 0 14 7 36
15 50 8 14 15 36 15 50 0 14 7 34 15 44 8 11 15 32 15 46 0 14 7 35 15 46 8
10 15 31 15 45 0 14 7 34 15 45 8 10 15 30 15 44 0 14 7 36 15 50 8 14 15 36
15 50 0 14 7 34 15 44 8 11 15 31 15 45 0 14 7 35 15 45 8 11 15 32 15 46 0
14 5 31 11 37 6 6 15 29 19 50 5 21 14 54 20 73 7 19 18 51 25 70 7 19 18 51
25 70 6 19 15 52 20 72 4 21 12 43 17 50 6 7 13 27 16 43 2 17 10 46 17 65 7
19 18 51 25 70 7 19 18 51 25 70 7 19 15 49 18 65 2 17 11 39 18 50 8 11 14
30 14 42 0 12 6 37 14 55 17 42 35 94 46 133 11 39 29 91 46 133 8 18 14 43
14 55 0 12 7 31 15 41 8 11 15 30 15 43 0 12 6 37 14 55 17 42 35 94 46 133
11 39 29 91 46 133 8 18 14 42 14 54 0 12 26 55 58 97 33 42 62 88 66 104 3
15 13 27 21 27 13 0 15 30 15 198 0 186 -1 198 -20 210 -11 7 -20 20 -20 30 0
25 -72 104 -111 123 -19 9 -50 21 -70 28 -26 8 -901 11 -3401 11 -3355 0
-3365 0 -3383 20 -10 11 -22 39 -26 63 -9 52 -27 122 -41 162 -6 17 -13 48
-17 70 -4 22 -13 50 -19 62 -7 12 -12 34 -12 48 0 14 -5 36 -12 48 -6 12 -15
40 -19 62 -10 51 -28 121 -41 160 -6 17 -13 48 -17 70 -4 22 -13 50 -19 62 -7
12 -12 33 -12 46 0 14 -7 41 -15 60 -8 20 -15 54 -15 75 0 23 -6 45 -15 52 -8
7 -15 20 -15 29 0 26 -96 109 -141 121 -22 6 -43 18 -46 26 -4 12 -97 14 -655
14 -407 0 -647 -4 -643 -9z m3069 -2019 c12 -19 35 -210 40 -327 3 -71 10
-148 16 -170 5 -22 10 -93 10 -157 l0 -118 -480 0 -479 0 -16 30 c-8 16 -15
44 -15 62 -1 18 -7 44 -15 58 -8 14 -14 36 -15 50 0 14 -6 45 -14 70 -21 67
-37 129 -45 180 -4 25 -11 52 -16 60 -5 8 -12 35 -16 60 -4 25 -11 59 -17 75
-22 62 -29 114 -18 125 12 12 1072 15 1080 2z m1424 0 c9 -7 12 -91 10 -388
l-3 -379 -321 -3 -321 -2 -16 117 c-10 65 -17 161 -17 213 0 52 -5 111 -10
130 -13 42 -26 281 -17 304 6 14 43 16 344 16 186 0 344 -4 351 -8z m1490 -87
c2 -49 -2 -126 -9 -170 -6 -44 -15 -143 -19 -220 -4 -77 -13 -175 -20 -218
l-12 -77 -322 2 -321 3 -3 379 c-2 297 1 381 10 388 7 4 166 7 353 5 l340 -2
3 -90z m1875 70 c-2 -23 -15 -73 -34 -125 -6 -19 -17 -51 -24 -70 -7 -19 -18
-51 -24 -70 -7 -19 -16 -48 -21 -65 -5 -16 -14 -46 -21 -65 -6 -19 -17 -51
-24 -70 -7 -19 -18 -51 -24 -70 -7 -19 -16 -48 -21 -65 -12 -44 -31 -96 -44
-125 l-12 -25 -452 -3 -452 -2 1 82 c0 46 5 108 10 138 5 30 13 128 19 218 5
89 14 179 20 200 5 20 10 58 10 83 0 25 3 49 7 52 3 4 250 6 547 5 534 -3 541
-3 539 -23z m-4647 -1487 c4 -7 11 -105 15 -220 4 -114 11 -212 15 -219 4 -6
11 -102 15 -213 5 -111 11 -221 15 -245 5 -31 3 -46 -7 -52 -8 -5 -152 -9
-322 -9 l-307 0 -20 33 c-11 17 -20 44 -20 58 0 15 -7 43 -15 62 -8 20 -15 47
-15 61 0 13 -7 37 -15 52 -8 16 -15 39 -15 52 0 12 -7 39 -15 59 -8 19 -15 47
-15 62 -1 14 -7 37 -15 51 -8 14 -15 41 -15 60 0 19 -7 44 -15 54 -8 11 -15
34 -15 52 0 17 -7 45 -15 60 -8 16 -15 42 -15 57 0 16 -5 38 -12 50 -6 12 -15
40 -19 62 -4 22 -10 50 -14 63 l-7 22 420 0 c317 0 423 -3 428 -12z m1296
-459 c2 -259 -1 -477 -5 -485 -7 -11 -51 -14 -255 -14 -180 0 -251 3 -260 12
-7 7 -12 45 -12 98 -1 47 -5 117 -11 155 -6 39 -14 153 -18 255 -5 102 -14
237 -21 302 -7 64 -10 123 -7 132 6 14 41 16 296 16 l291 0 2 -471z m1355 455
c3 -9 0 -75 -7 -148 -7 -72 -16 -216 -21 -321 -4 -104 -12 -228 -18 -275 -5
-47 -10 -123 -10 -170 -1 -53 -6 -91 -13 -98 -17 -17 -489 -17 -506 0 -9 9
-12 137 -12 513 0 276 3 505 7 508 3 4 134 7 290 7 251 0 284 -2 290 -16z
m1475 -19 c-1 -16 -8 -46 -16 -65 -21 -56 -37 -103 -46 -135 -5 -16 -14 -46
-21 -65 -6 -19 -17 -51 -24 -70 -7 -19 -18 -51 -24 -70 -7 -19 -16 -48 -21
-65 -5 -16 -14 -46 -21 -65 -6 -19 -17 -51 -24 -70 -7 -19 -18 -51 -24 -70 -7
-19 -16 -48 -21 -65 -10 -36 -27 -84 -51 -145 l-18 -45 -238 -3 c-131 -1 -249
0 -262 3 -21 5 -22 10 -17 48 3 23 10 135 15 249 5 114 12 212 16 218 4 7 10
103 14 215 5 145 11 208 20 219 12 14 57 16 390 14 l376 -3 -3 -30z"/>
<path d="M3440 1265 c-14 -8 -32 -14 -41 -15 -9 0 -36 -11 -60 -25 -24 -14
-51 -28 -59 -32 -49 -22 -183 -147 -201 -188 -5 -11 -18 -33 -29 -50 -11 -16
-21 -34 -23 -40 -2 -5 -10 -26 -17 -45 -52 -145 -42 -407 21 -520 5 -8 19 -35
31 -60 31 -60 142 -170 201 -199 26 -12 49 -27 53 -32 3 -5 14 -9 26 -9 11 0
32 -6 46 -14 15 -8 71 -20 126 -27 110 -13 278 0 328 27 14 8 35 14 46 14 11
0 25 7 32 15 7 8 19 15 27 15 35 0 189 140 214 195 5 11 21 40 34 64 14 24 25
53 25 63 0 10 7 33 16 50 13 26 17 64 17 190 0 129 -3 162 -17 182 -9 14 -16
32 -16 41 0 22 -49 111 -98 177 -64 87 -176 165 -312 219 -52 20 -337 24 -370
4z"/>
<path d="M6680 1265 c-14 -8 -33 -14 -43 -15 -26 0 -118 -52 -187 -105 -51
-39 -94 -86 -148 -160 -32 -45 -68 -149 -87 -255 -16 -88 -16 -101 -1 -172 9
-42 16 -86 16 -97 0 -25 44 -129 86 -202 16 -28 126 -139 149 -150 11 -5 40
-21 64 -34 24 -14 51 -25 59 -25 7 0 26 -6 40 -14 15 -8 71 -20 126 -27 110
-13 278 0 328 27 14 8 35 14 46 14 11 0 25 7 32 15 7 8 19 15 27 15 28 0 131
90 180 157 54 74 93 148 93 179 1 10 7 30 15 44 21 37 21 316 0 356 -8 16 -15
36 -15 45 0 25 -58 128 -108 192 -69 88 -162 152 -302 207 -52 21 -336 25
-370 5z"/>
</g>
</svg>
